<svg width="151" height="42" viewBox="0 0 151 42" fill="none" xmlns="http://www.w3.org/2000/svg">
<path d="M7.728 4.4H15.072C17.408 4.4 19.36 4.88 20.928 5.84C22.496 6.8 23.696 8.032 24.528 9.536C25.36 11.008 25.824 12.656 25.92 14.48C26.048 16.272 25.856 18.016 25.344 19.712C24.832 21.408 24 22.944 22.848 24.32C21.728 25.696 20.336 26.704 18.672 27.344L27.072 38H19.248L9.936 26.192C9.232 25.296 8.912 24.304 8.976 23.216C9.072 22.128 9.392 21.184 9.936 20.384C10.096 20.736 10.4 21.008 10.848 21.2C11.296 21.392 11.792 21.536 12.336 21.632C12.912 21.728 13.472 21.776 14.016 21.776C14.56 21.776 15.024 21.744 15.408 21.68C16.272 21.52 17.008 21.136 17.616 20.528C18.256 19.92 18.72 19.216 19.008 18.416C19.328 17.584 19.488 16.72 19.488 15.824C19.488 14.896 19.296 14.048 18.912 13.28C18.56 12.512 17.984 11.888 17.184 11.408C16.416 10.896 15.424 10.64 14.208 10.64H8.784V38H2.4V10.304C2.4 8.544 2.8 7.12 3.6 6.032C4.4 4.944 5.776 4.4 7.728 4.4Z" fill="white"/>
<line x1="34.5" y1="2" x2="34.5" y2="40" stroke="white"/>
<path d="M41.864 1.2H45.536C46.704 1.2 47.68 1.44 48.464 1.92C49.248 2.4 49.848 3.016 50.264 3.768C50.68 4.504 50.912 5.328 50.96 6.24C51.024 7.136 50.928 8.008 50.672 8.856C50.416 9.704 50 10.472 49.424 11.16C48.864 11.848 48.168 12.352 47.336 12.672L51.536 18H47.624L42.968 12.096C42.616 11.648 42.456 11.152 42.488 10.608C42.536 10.064 42.696 9.592 42.968 9.192C43.048 9.368 43.2 9.504 43.424 9.6C43.648 9.696 43.896 9.768 44.168 9.816C44.456 9.864 44.736 9.888 45.008 9.888C45.28 9.888 45.512 9.872 45.704 9.84C46.136 9.76 46.504 9.568 46.808 9.264C47.128 8.96 47.36 8.608 47.504 8.208C47.664 7.792 47.744 7.36 47.744 6.912C47.744 6.448 47.648 6.024 47.456 5.64C47.28 5.256 46.992 4.944 46.592 4.704C46.208 4.448 45.712 4.32 45.104 4.32H42.392V18H39.2V4.152C39.2 3.272 39.4 2.56 39.8 2.016C40.2 1.472 40.888 1.2 41.864 1.2ZM62.1502 0.887999C64.5182 0.887999 66.5422 1.744 68.2222 3.456C69.9182 5.152 70.7662 7.232 70.7662 9.696C70.7662 12.144 69.9342 14.2 68.2702 15.864C66.5902 17.544 64.5582 18.384 62.1742 18.384C59.6622 18.384 57.5822 17.52 55.9342 15.792C54.2862 14.08 53.4622 12.024 53.4622 9.624C53.4622 9.384 53.4702 9.128 53.4862 8.856C53.5182 8.568 53.5582 8.272 53.6062 7.968C53.6542 7.664 53.7182 7.376 53.7982 7.104C53.8782 6.816 53.9822 6.552 54.1102 6.312C54.3662 5.8 54.7262 5.384 55.1902 5.064C55.6542 4.744 56.1422 4.528 56.6542 4.416C57.1822 4.304 57.7022 4.296 58.2142 4.392C58.7422 4.472 59.1982 4.648 59.5822 4.92C59.9662 5.192 60.2382 5.568 60.3982 6.048C60.5742 6.512 60.5822 7.064 60.4222 7.704C60.1182 7.336 59.7422 7.104 59.2942 7.008C58.8622 6.912 58.4462 6.96 58.0462 7.152C57.6462 7.344 57.3102 7.68 57.0382 8.16C56.7662 8.64 56.6462 9.272 56.6782 10.056C56.7422 11.72 57.3982 13.056 58.6462 14.064C59.6702 14.912 60.8462 15.336 62.1742 15.336C63.6622 15.336 64.9342 14.792 65.9902 13.704C67.0462 12.6 67.5742 11.256 67.5742 9.672C67.5742 8.088 67.0462 6.744 65.9902 5.64C64.9022 4.552 63.6062 4.008 62.1022 4.008C61.3982 4.008 60.7582 4.112 60.1822 4.32C59.8942 4.064 59.5502 3.864 59.1502 3.72C58.7662 3.576 58.3502 3.496 57.9022 3.48C57.4702 3.464 57.0302 3.512 56.5822 3.624C56.1502 3.736 55.7422 3.912 55.3582 4.152C56.0302 3.32 56.8382 2.624 57.7822 2.064C59.1422 1.28 60.5982 0.887999 62.1502 0.887999ZM82.3642 1.2V4.344H75.8842V8.064H82.3642C82.3482 8.432 82.2922 8.8 82.1962 9.168C82.1002 9.536 81.9482 9.864 81.7402 10.152C81.5322 10.44 81.2602 10.68 80.9242 10.872C80.6042 11.048 80.2042 11.136 79.7242 11.136H75.8842V14.856H82.3642V18H72.6922V4.104C72.6922 3.176 72.9482 2.464 73.4602 1.968C73.9882 1.456 74.6522 1.2 75.4522 1.2H82.3642ZM88.0025 1.2V8.064H93.6185V1.2H96.8585V18H93.6185V11.136H90.4265C90.1545 11.136 89.8825 11.104 89.6105 11.04C89.3385 10.976 89.0905 10.872 88.8665 10.728C88.6585 10.584 88.4745 10.4 88.3145 10.176C88.1545 9.936 88.0505 9.64 88.0025 9.288V18H84.7625V3.768C84.7625 3.32 84.8505 2.936 85.0265 2.616C85.2185 2.28 85.4585 2.008 85.7465 1.8C86.0505 1.592 86.3945 1.44 86.7785 1.344C87.1785 1.248 87.5865 1.2 88.0025 1.2ZM101.911 1.2H105.583C106.751 1.2 107.727 1.44 108.511 1.92C109.295 2.4 109.895 3.016 110.311 3.768C110.727 4.504 110.959 5.328 111.007 6.24C111.071 7.136 110.975 8.008 110.719 8.856C110.463 9.704 110.047 10.472 109.471 11.16C108.911 11.848 108.215 12.352 107.383 12.672L111.583 18H107.671L103.015 12.096C102.663 11.648 102.503 11.152 102.535 10.608C102.583 10.064 102.743 9.592 103.015 9.192C103.095 9.368 103.247 9.504 103.471 9.6C103.695 9.696 103.943 9.768 104.215 9.816C104.503 9.864 104.783 9.888 105.055 9.888C105.327 9.888 105.559 9.872 105.751 9.84C106.183 9.76 106.551 9.568 106.855 9.264C107.175 8.96 107.407 8.608 107.551 8.208C107.711 7.792 107.791 7.36 107.791 6.912C107.791 6.448 107.695 6.024 107.503 5.64C107.327 5.256 107.039 4.944 106.639 4.704C106.255 4.448 105.759 4.32 105.151 4.32H102.439V18H99.2469V4.152C99.2469 3.272 99.4469 2.56 99.8469 2.016C100.247 1.472 100.935 1.2 101.911 1.2ZM117.397 18H114.229V3.72C114.229 2.92 114.517 2.296 115.093 1.848C115.669 1.4 116.437 1.184 117.397 1.2V18ZM133.668 6.936C133.444 6.344 133.092 5.84 132.612 5.424C132.132 5.008 131.58 4.688 130.956 4.464C130.348 4.224 129.7 4.08 129.012 4.032C128.324 3.968 127.676 4 127.068 4.128C126.412 4.272 125.82 4.52 125.292 4.872C124.78 5.208 124.34 5.624 123.972 6.12C123.62 6.6 123.348 7.136 123.156 7.728C122.964 8.32 122.868 8.936 122.868 9.576C122.868 10.776 123.124 11.8 123.636 12.648C124.148 13.48 124.796 14.12 125.58 14.568C126.364 15.016 127.22 15.256 128.148 15.288C129.076 15.32 129.956 15.144 130.788 14.76C131.508 14.44 132.316 13.816 133.212 12.888L135.276 15.12C134.732 15.68 134.204 16.16 133.692 16.56C133.18 16.96 132.644 17.288 132.084 17.544C131.54 17.8 130.956 17.992 130.332 18.12C129.724 18.248 129.06 18.312 128.34 18.312C127.044 18.312 125.9 18.104 124.908 17.688C123.916 17.272 123.068 16.72 122.364 16.032C121.66 15.328 121.1 14.528 120.684 13.632C120.284 12.72 120.02 11.776 119.892 10.8C119.764 9.824 119.788 8.856 119.964 7.896C120.14 6.92 120.46 6.016 120.924 5.184C121.372 4.4 121.876 3.744 122.436 3.216C123.012 2.672 123.628 2.24 124.284 1.92C124.956 1.584 125.66 1.344 126.396 1.2C127.148 1.056 127.924 0.975999 128.724 0.959999C129.284 0.959999 129.868 1.016 130.476 1.128C131.1 1.224 131.684 1.384 132.228 1.608C132.788 1.816 133.284 2.088 133.716 2.424C134.148 2.76 134.452 3.152 134.628 3.6C134.804 4.048 134.828 4.552 134.7 5.112C134.572 5.656 134.228 6.264 133.668 6.936ZM140.667 1.2V8.064H146.283V1.2H149.523V18H146.283V11.136H143.091C142.819 11.136 142.547 11.104 142.275 11.04C142.003 10.976 141.755 10.872 141.531 10.728C141.323 10.584 141.139 10.4 140.979 10.176C140.819 9.936 140.715 9.64 140.667 9.288V18H137.427V3.768C137.427 3.32 137.515 2.936 137.691 2.616C137.883 2.28 138.123 2.008 138.411 1.8C138.715 1.592 139.059 1.44 139.443 1.344C139.843 1.248 140.251 1.2 140.667 1.2Z" fill="white"/>
<path d="M41.67 25.976C41.594 25.828 41.504 25.714 41.4 25.634C41.296 25.554 41.19 25.5 41.082 25.472C40.978 25.444 40.876 25.44 40.776 25.46C40.68 25.48 40.6 25.514 40.536 25.562C40.472 25.61 40.432 25.668 40.416 25.736C40.4 25.804 40.42 25.874 40.476 25.946C40.552 26.042 40.66 26.148 40.8 26.264C40.94 26.376 41.084 26.496 41.232 26.624C41.384 26.752 41.528 26.884 41.664 27.02C41.8 27.156 41.9 27.294 41.964 27.434C42.044 27.614 42.078 27.804 42.066 28.004C42.054 28.2 41.996 28.38 41.892 28.544C41.792 28.708 41.648 28.844 41.46 28.952C41.272 29.056 41.044 29.108 40.776 29.108C40.616 29.108 40.458 29.082 40.302 29.03C40.15 28.982 40.006 28.914 39.87 28.826C39.734 28.734 39.608 28.626 39.492 28.502C39.38 28.378 39.286 28.24 39.21 28.088L39.84 27.626C39.876 27.702 39.922 27.776 39.978 27.848C40.034 27.92 40.096 27.988 40.164 28.052C40.232 28.112 40.302 28.166 40.374 28.214C40.45 28.258 40.522 28.29 40.59 28.31C40.71 28.342 40.822 28.346 40.926 28.322C41.034 28.298 41.118 28.254 41.178 28.19C41.238 28.122 41.268 28.04 41.268 27.944C41.268 27.844 41.222 27.736 41.13 27.62C41.03 27.496 40.896 27.368 40.728 27.236C40.56 27.104 40.394 26.964 40.23 26.816C40.066 26.668 39.924 26.508 39.804 26.336C39.684 26.164 39.624 25.976 39.624 25.772C39.624 25.616 39.656 25.472 39.72 25.34C39.784 25.208 39.868 25.096 39.972 25.004C40.08 24.912 40.204 24.84 40.344 24.788C40.484 24.736 40.63 24.71 40.782 24.71C40.974 24.71 41.152 24.738 41.316 24.794C41.484 24.846 41.62 24.922 41.724 25.022C41.8 25.09 41.858 25.166 41.898 25.25C41.938 25.334 41.958 25.42 41.958 25.508C41.958 25.592 41.934 25.676 41.886 25.76C41.842 25.84 41.77 25.912 41.67 25.976ZM42.5813 24.8H45.4553C45.4553 24.924 45.4373 25.036 45.4013 25.136C45.3653 25.232 45.3173 25.314 45.2573 25.382C45.1973 25.45 45.1273 25.502 45.0473 25.538C44.9713 25.574 44.8893 25.592 44.8013 25.592H44.3213V29H43.5113V25.592H42.5813V24.8ZM46.5973 25.358C46.6773 25.146 46.7953 24.992 46.9513 24.896C47.1113 24.8 47.3293 24.776 47.6053 24.824L49.2133 29H48.3853L48.0613 28.142C47.9413 28.142 47.8113 28.142 47.6713 28.142C47.5313 28.138 47.4033 28.146 47.2873 28.166C47.1753 28.186 47.0873 28.222 47.0233 28.274C46.9593 28.322 46.9433 28.4 46.9753 28.508C46.8313 28.468 46.7213 28.408 46.6453 28.328C46.5733 28.244 46.5293 28.156 46.5133 28.064C46.4973 27.972 46.5073 27.882 46.5433 27.794C46.5793 27.702 46.6333 27.626 46.7053 27.566C46.7733 27.506 46.8493 27.464 46.9333 27.44C47.0213 27.412 47.1113 27.394 47.2033 27.386C47.2993 27.374 47.3953 27.37 47.4913 27.374C47.5873 27.374 47.6793 27.374 47.7673 27.374L47.2033 25.934C47.0753 26.258 46.9613 26.548 46.8613 26.804C46.7653 27.056 46.6713 27.298 46.5793 27.53C46.4913 27.758 46.4013 27.99 46.3093 28.226C46.2213 28.458 46.1233 28.716 46.0153 29H45.1873L46.5973 25.358ZM50.5631 24.8V26.516H51.9671V24.8H52.7771V29H51.9671V27.284H51.1691C51.1011 27.284 51.0331 27.276 50.9651 27.26C50.8971 27.244 50.8351 27.218 50.7791 27.182C50.7271 27.146 50.6811 27.1 50.6411 27.044C50.6011 26.984 50.5751 26.91 50.5631 26.822V29H49.7531V25.442C49.7531 25.33 49.7751 25.234 49.8191 25.154C49.8671 25.07 49.9271 25.002 49.9991 24.95C50.0751 24.898 50.1611 24.86 50.2571 24.836C50.3571 24.812 50.4591 24.8 50.5631 24.8ZM54.2202 28.238H55.6602V29H53.4282V25.43C53.4282 25.23 53.5002 25.074 53.6442 24.962C53.7882 24.85 53.9802 24.796 54.2202 24.8V28.238ZM57.7629 24.8H58.5609V27.416C58.5609 27.548 58.5709 27.67 58.5909 27.782C58.6149 27.89 58.6529 27.984 58.7049 28.064C58.7569 28.14 58.8249 28.2 58.9089 28.244C58.9969 28.288 59.1049 28.31 59.2329 28.31C59.4929 28.31 59.6789 28.23 59.7909 28.07C59.9029 27.91 59.9589 27.686 59.9589 27.398V25.526C59.9589 25.418 59.9709 25.318 59.9949 25.226C60.0189 25.134 60.0609 25.056 60.1209 24.992C60.1809 24.928 60.2609 24.88 60.3609 24.848C60.4649 24.812 60.5949 24.796 60.7509 24.8V27.284C60.7509 27.544 60.7289 27.784 60.6849 28.004C60.6409 28.224 60.5609 28.414 60.4449 28.574C60.3329 28.73 60.1789 28.852 59.9829 28.94C59.7869 29.028 59.5389 29.072 59.2389 29.072C58.9389 29.072 58.6929 29.028 58.5009 28.94C58.3089 28.852 58.1569 28.73 58.0449 28.574C57.9369 28.414 57.8629 28.226 57.8229 28.01C57.7829 27.79 57.7629 27.548 57.7629 27.284V24.8ZM61.3488 25.436C61.3488 25.352 61.3608 25.272 61.3848 25.196C61.4128 25.12 61.4528 25.052 61.5048 24.992C61.5568 24.932 61.6208 24.886 61.6968 24.854C61.7768 24.818 61.8688 24.8 61.9728 24.8H62.1048L63.9168 27.566V24.8H64.7088V29H63.9468L62.1408 26.246V29H61.3488V25.436ZM66.7978 24.8C66.9778 24.8 67.1378 24.824 67.2778 24.872C67.4218 24.92 67.5518 24.974 67.6678 25.034C67.9038 25.154 68.0978 25.322 68.2498 25.538C68.4018 25.75 68.5118 25.986 68.5798 26.246C68.6478 26.506 68.6738 26.776 68.6578 27.056C68.6458 27.332 68.5898 27.594 68.4898 27.842C68.3938 28.086 68.2558 28.304 68.0758 28.496C67.8958 28.684 67.6758 28.818 67.4158 28.898C67.3118 28.93 67.1698 28.954 66.9898 28.97C66.8138 28.982 66.6258 28.992 66.4258 29C66.2258 29.004 66.0258 29.004 65.8258 29C65.6298 29 65.4578 29 65.3098 29V25.514C65.3098 25.414 65.3218 25.32 65.3458 25.232C65.3698 25.144 65.4078 25.068 65.4598 25.004C65.5158 24.94 65.5878 24.89 65.6758 24.854C65.7678 24.818 65.8798 24.8 66.0118 24.8H66.7978ZM66.1078 28.22C66.2838 28.22 66.4498 28.22 66.6058 28.22C66.7618 28.22 66.9038 28.206 67.0318 28.178C67.1638 28.146 67.2838 28.092 67.3918 28.016C67.4998 27.94 67.5938 27.826 67.6738 27.674C67.7378 27.55 67.7858 27.408 67.8178 27.248C67.8498 27.088 67.8598 26.926 67.8478 26.762C67.8398 26.598 67.8078 26.442 67.7518 26.294C67.6998 26.142 67.6198 26.012 67.5118 25.904C67.4198 25.812 67.3098 25.738 67.1818 25.682C67.0538 25.626 66.9198 25.598 66.7798 25.598H66.1078V28.22ZM40.338 30.794L41.316 33.728L42.3 30.794H42.552H42.558H43.35V34.994H42.552V32.354L41.898 34.298C41.878 34.358 41.86 34.42 41.844 34.484C41.832 34.544 41.824 34.604 41.82 34.664C41.82 34.72 41.828 34.774 41.844 34.826C41.864 34.874 41.898 34.914 41.946 34.946C41.838 35.002 41.718 35.03 41.586 35.03C41.458 35.034 41.352 35.02 41.268 34.988C41.196 34.96 41.13 34.922 41.07 34.874C41.014 34.822 40.964 34.766 40.92 34.706C40.876 34.642 40.838 34.576 40.806 34.508C40.778 34.436 40.752 34.366 40.728 34.298L40.098 32.408V34.994H39.3V31.424C39.3 31.228 39.36 31.074 39.48 30.962C39.604 30.85 39.772 30.794 39.984 30.794H40.338ZM46.3703 30.8V31.586H44.7503V32.516H46.3703C46.3663 32.608 46.3523 32.7 46.3283 32.792C46.3043 32.884 46.2663 32.966 46.2143 33.038C46.1623 33.11 46.0943 33.17 46.0103 33.218C45.9303 33.262 45.8303 33.284 45.7103 33.284H44.7503V34.214H46.3703V35H43.9523V31.526C43.9523 31.294 44.0163 31.116 44.1443 30.992C44.2763 30.864 44.4423 30.8 44.6423 30.8H46.3703ZM46.9699 30.8H49.8439C49.8439 30.924 49.8259 31.036 49.7899 31.136C49.7539 31.232 49.7059 31.314 49.6459 31.382C49.5859 31.45 49.5159 31.502 49.4359 31.538C49.3599 31.574 49.2779 31.592 49.1899 31.592H48.7099V35H47.8999V31.592H46.9699V30.8ZM50.9859 31.358C51.0659 31.146 51.1839 30.992 51.3399 30.896C51.4999 30.8 51.7179 30.776 51.9939 30.824L53.6019 35H52.7739L52.4499 34.142C52.3299 34.142 52.1999 34.142 52.0599 34.142C51.9199 34.138 51.7919 34.146 51.6759 34.166C51.5639 34.186 51.4759 34.222 51.4119 34.274C51.3479 34.322 51.3319 34.4 51.3639 34.508C51.2199 34.468 51.1099 34.408 51.0339 34.328C50.9619 34.244 50.9179 34.156 50.9019 34.064C50.8859 33.972 50.8959 33.882 50.9319 33.794C50.9679 33.702 51.0219 33.626 51.0939 33.566C51.1619 33.506 51.2379 33.464 51.3219 33.44C51.4099 33.412 51.4999 33.394 51.5919 33.386C51.6879 33.374 51.7839 33.37 51.8799 33.374C51.9759 33.374 52.0679 33.374 52.1559 33.374L51.5919 31.934C51.4639 32.258 51.3499 32.548 51.2499 32.804C51.1539 33.056 51.0599 33.298 50.9679 33.53C50.8799 33.758 50.7899 33.99 50.6979 34.226C50.6099 34.458 50.5119 34.716 50.4039 35H49.5759L50.9859 31.358ZM54.9878 34.238H56.4278V35H54.1958V31.43C54.1958 31.23 54.2678 31.074 54.4118 30.962C54.5558 30.85 54.7478 30.796 54.9878 30.8V34.238ZM57.0305 35V31.508C57.0345 31.092 57.2265 30.856 57.6065 30.8H58.4285C58.6325 30.8 58.8145 30.84 58.9745 30.92C59.1385 31 59.2765 31.11 59.3885 31.25C59.4765 31.358 59.5385 31.48 59.5745 31.616C59.6145 31.748 59.6265 31.88 59.6105 32.012C59.5945 32.144 59.5505 32.27 59.4785 32.39C59.4105 32.51 59.3125 32.612 59.1845 32.696C59.3485 32.76 59.4845 32.848 59.5925 32.96C59.7045 33.072 59.7885 33.196 59.8445 33.332C59.9005 33.468 59.9285 33.61 59.9285 33.758C59.9325 33.906 59.9085 34.05 59.8565 34.19C59.8085 34.326 59.7345 34.454 59.6345 34.574C59.5345 34.69 59.4105 34.784 59.2625 34.856C59.0705 34.952 58.8045 35 58.4645 35H57.0305ZM57.8225 31.568V34.244C57.8865 34.244 57.9585 34.246 58.0385 34.25C58.1185 34.25 58.2005 34.25 58.2845 34.25C58.3685 34.25 58.4505 34.248 58.5305 34.244C58.6105 34.236 58.6805 34.222 58.7405 34.202C58.8925 34.162 59.0005 34.094 59.0645 33.998C59.1285 33.898 59.1525 33.794 59.1365 33.686C59.1245 33.578 59.0765 33.476 58.9925 33.38C58.9085 33.284 58.7945 33.22 58.6505 33.188C58.6065 33.18 58.5525 33.174 58.4885 33.17C58.4245 33.162 58.3565 33.162 58.2845 33.17C58.2165 33.174 58.1525 33.186 58.0925 33.206C58.0325 33.226 57.9885 33.26 57.9605 33.308C57.9125 33.196 57.8825 33.094 57.8705 33.002C57.8625 32.906 57.8765 32.82 57.9125 32.744C57.9525 32.668 58.0185 32.604 58.1105 32.552C58.2065 32.5 58.3345 32.458 58.4945 32.426C58.5945 32.406 58.6765 32.356 58.7405 32.276C58.8085 32.196 58.8425 32.102 58.8425 31.994C58.8425 31.878 58.8025 31.786 58.7225 31.718C58.6465 31.65 58.5585 31.606 58.4585 31.586C58.4145 31.578 58.3625 31.572 58.3025 31.568C58.2465 31.564 58.1885 31.562 58.1285 31.562C58.0725 31.562 58.0165 31.564 57.9605 31.568C57.9045 31.568 57.8585 31.568 57.8225 31.568ZM61.5738 31.358C61.6538 31.146 61.7718 30.992 61.9278 30.896C62.0878 30.8 62.3058 30.776 62.5818 30.824L64.1898 35H63.3618L63.0378 34.142C62.9178 34.142 62.7878 34.142 62.6478 34.142C62.5078 34.138 62.3798 34.146 62.2638 34.166C62.1518 34.186 62.0638 34.222 61.9998 34.274C61.9358 34.322 61.9198 34.4 61.9518 34.508C61.8078 34.468 61.6978 34.408 61.6218 34.328C61.5498 34.244 61.5058 34.156 61.4898 34.064C61.4738 33.972 61.4838 33.882 61.5198 33.794C61.5558 33.702 61.6098 33.626 61.6818 33.566C61.7498 33.506 61.8258 33.464 61.9098 33.44C61.9978 33.412 62.0878 33.394 62.1798 33.386C62.2758 33.374 62.3718 33.37 62.4678 33.374C62.5638 33.374 62.6558 33.374 62.7438 33.374L62.1798 31.934C62.0518 32.258 61.9378 32.548 61.8378 32.804C61.7418 33.056 61.6478 33.298 61.5558 33.53C61.4678 33.758 61.3778 33.99 61.2858 34.226C61.1978 34.458 61.0998 34.716 60.9918 35H60.1638L61.5738 31.358ZM64.4484 30.8H65.2464V33.416C65.2464 33.548 65.2564 33.67 65.2764 33.782C65.3004 33.89 65.3384 33.984 65.3904 34.064C65.4424 34.14 65.5104 34.2 65.5944 34.244C65.6824 34.288 65.7904 34.31 65.9184 34.31C66.1784 34.31 66.3644 34.23 66.4764 34.07C66.5884 33.91 66.6444 33.686 66.6444 33.398V31.526C66.6444 31.418 66.6564 31.318 66.6804 31.226C66.7044 31.134 66.7464 31.056 66.8064 30.992C66.8664 30.928 66.9464 30.88 67.0464 30.848C67.1504 30.812 67.2804 30.796 67.4364 30.8V33.284C67.4364 33.544 67.4144 33.784 67.3704 34.004C67.3264 34.224 67.2464 34.414 67.1304 34.574C67.0184 34.73 66.8644 34.852 66.6684 34.94C66.4724 35.028 66.2244 35.072 65.9244 35.072C65.6244 35.072 65.3784 35.028 65.1864 34.94C64.9944 34.852 64.8424 34.73 64.7304 34.574C64.6224 34.414 64.5484 34.226 64.5084 34.01C64.4684 33.79 64.4484 33.548 64.4484 33.284V30.8ZM39.3 36.8H42.174C42.174 36.924 42.156 37.036 42.12 37.136C42.084 37.232 42.036 37.314 41.976 37.382C41.916 37.45 41.846 37.502 41.766 37.538C41.69 37.574 41.608 37.592 41.52 37.592H41.04V41H40.23V37.592H39.3V36.8ZM45.134 36.8V37.586H43.514V38.516H45.134C45.13 38.608 45.116 38.7 45.092 38.792C45.068 38.884 45.03 38.966 44.978 39.038C44.926 39.11 44.858 39.17 44.774 39.218C44.694 39.262 44.594 39.284 44.474 39.284H43.514V40.214H45.134V41H42.716V37.526C42.716 37.294 42.78 37.116 42.908 36.992C43.04 36.864 43.206 36.8 43.406 36.8H45.134ZM49.1416 38.234C49.0856 38.086 48.9976 37.96 48.8776 37.856C48.7576 37.752 48.6196 37.672 48.4636 37.616C48.3116 37.556 48.1496 37.52 47.9776 37.508C47.8056 37.492 47.6436 37.5 47.4916 37.532C47.3276 37.568 47.1796 37.63 47.0476 37.718C46.9196 37.802 46.8096 37.906 46.7176 38.03C46.6296 38.15 46.5616 38.284 46.5136 38.432C46.4656 38.58 46.4416 38.734 46.4416 38.894C46.4416 39.194 46.5056 39.45 46.6336 39.662C46.7616 39.87 46.9236 40.03 47.1196 40.142C47.3156 40.254 47.5296 40.314 47.7616 40.322C47.9936 40.33 48.2136 40.286 48.4216 40.19C48.6016 40.11 48.8036 39.954 49.0276 39.722L49.5436 40.28C49.4076 40.42 49.2756 40.54 49.1476 40.64C49.0196 40.74 48.8856 40.822 48.7456 40.886C48.6096 40.95 48.4636 40.998 48.3076 41.03C48.1556 41.062 47.9896 41.078 47.8096 41.078C47.4856 41.078 47.1996 41.026 46.9516 40.922C46.7036 40.818 46.4916 40.68 46.3156 40.508C46.1396 40.332 45.9996 40.132 45.8956 39.908C45.7956 39.68 45.7296 39.444 45.6976 39.2C45.6656 38.956 45.6716 38.714 45.7156 38.474C45.7596 38.23 45.8396 38.004 45.9556 37.796C46.0676 37.6 46.1936 37.436 46.3336 37.304C46.4776 37.168 46.6316 37.06 46.7956 36.98C46.9636 36.896 47.1396 36.836 47.3236 36.8C47.5116 36.764 47.7056 36.744 47.9056 36.74C48.0456 36.74 48.1916 36.754 48.3436 36.782C48.4996 36.806 48.6456 36.846 48.7816 36.902C48.9216 36.954 49.0456 37.022 49.1536 37.106C49.2616 37.19 49.3376 37.288 49.3816 37.4C49.4256 37.512 49.4316 37.638 49.3996 37.778C49.3676 37.914 49.2816 38.066 49.1416 38.234ZM50.8913 36.8V38.516H52.2953V36.8H53.1053V41H52.2953V39.284H51.4973C51.4293 39.284 51.3613 39.276 51.2933 39.26C51.2253 39.244 51.1633 39.218 51.1073 39.182C51.0553 39.146 51.0093 39.1 50.9693 39.044C50.9293 38.984 50.9033 38.91 50.8913 38.822V41H50.0813V37.442C50.0813 37.33 50.1033 37.234 50.1473 37.154C50.1953 37.07 50.2553 37.002 50.3273 36.95C50.4033 36.898 50.4893 36.86 50.5853 36.836C50.6853 36.812 50.7873 36.8 50.8913 36.8ZM53.7023 37.436C53.7023 37.352 53.7143 37.272 53.7383 37.196C53.7663 37.12 53.8063 37.052 53.8583 36.992C53.9103 36.932 53.9743 36.886 54.0503 36.854C54.1303 36.818 54.2223 36.8 54.3263 36.8H54.4583L56.2703 39.566V36.8H57.0623V41H56.3003L54.4943 38.246V41H53.7023V37.436ZM58.5153 41H57.7233V37.43C57.7233 37.23 57.7953 37.074 57.9393 36.962C58.0833 36.85 58.2753 36.796 58.5153 36.8V41ZM60.039 38.252L60.867 37.19C61.023 36.966 61.203 36.828 61.407 36.776C61.611 36.724 61.855 36.73 62.139 36.794L61.365 37.784L60.669 38.672L62.283 41H61.335L60.039 39.128V41H59.229V36.794H60.039V38.252Z" fill="white"/>
</svg>
