<svg width="475" height="475" viewBox="0 0 475 475" fill="none" xmlns="http://www.w3.org/2000/svg">
<g clip-path="url(#clip0_201_26)">
<path d="M255.204 102.3C254.598 90.9789 243.028 92.9049 231.739 92.9049C240.078 95.1259 247.967 98.2159 255.204 102.3Z" fill="white"/>
<path d="M134.524 73.928C90.699 73.928 70.527 129.399 105.561 157.298C117.504 125.408 141.279 102.51 172.447 93.472C163.921 81.685 150.146 73.928 134.524 73.928Z" fill="white"/>
<path d="M43.987 148.617C45.773 154.348 48.087 159.846 50.836 165.055L36.44 179.459C32.574 183.325 32.574 189.6 36.44 193.474L61.815 218.857C63.663 220.705 66.195 221.745 68.834 221.745C71.444 221.745 73.959 220.705 75.839 218.857L90.219 204.453C92.377 205.595 94.769 206.295 97.004 207.28C97.004 207.116 96.988 206.946 96.988 206.782C96.988 195.011 98.34 183.907 100.747 173.48C83.385 162.306 71.8 142.91 71.8 120.765C71.8 86.173 99.939 58.026 134.523 58.026C157.941 58.026 178.16 71.063 188.953 90.11C200.476 88.681 211.3 88.681 224.329 91.143C222.653 86.073 220.681 81.111 218.211 76.46L232.607 62.049C234.485 60.193 235.525 57.669 235.525 55.045C235.525 52.42 234.485 49.897 232.607 48.041L207.246 22.674C205.306 20.733 202.774 19.77 200.243 19.77C197.711 19.77 195.18 20.733 193.254 22.674L178.812 37.085C173.595 34.321 168.113 32.007 162.368 30.26V9.9C162.368 4.434 157.957 0 152.475 0H116.587C111.136 0 106.678 4.434 106.678 9.9V30.259C100.948 32.006 95.465 34.32 90.232 37.084L75.839 22.689C73.897 20.748 71.366 19.785 68.834 19.785C66.303 19.785 63.757 20.748 61.831 22.681L36.44 48.048C34.592 49.912 33.552 52.427 33.552 55.06C33.552 57.692 34.592 60.208 36.44 62.064L50.836 76.467C48.086 81.685 45.773 87.175 44.019 92.905H23.675C18.193 92.905 13.766 97.346 13.766 102.82V138.709C13.766 144.167 18.193 148.617 23.675 148.617H43.987Z" fill="white"/>
<path d="M354.871 340.654C370.743 331.949 381.644 315.287 381.644 295.951C381.644 267.734 358.677 244.783 330.46 244.783C320.537 244.783 311.342 247.749 303.485 252.656C298.78 271.384 291.372 289.298 281.682 304.858C309.152 310.022 334.357 322.531 354.871 340.654Z" fill="white"/>
<path d="M460.782 276.588C460.782 270.679 455.983 265.895 450.097 265.895H428.14C426.244 259.706 423.729 253.774 420.747 248.145L436.291 232.601C438.311 230.597 439.428 227.88 439.428 225.046C439.428 222.211 438.31 219.493 436.291 217.483L408.928 190.112C406.848 188.022 404.099 186.974 401.367 186.974C398.633 186.974 395.9 188.022 393.82 190.112L378.244 205.664C372.621 202.682 366.705 200.183 360.493 198.295V176.337C360.493 170.436 355.725 165.652 349.824 165.652H311.11C308.516 165.652 306.233 166.692 304.371 168.23C307.631 180.125 309.417 193.023 309.417 206.782C309.417 215.517 308.735 224.386 307.461 233.205C314.666 230.549 322.337 228.881 330.46 228.881C367.45 228.881 397.546 258.97 397.546 295.951C397.546 319.588 385.201 340.304 366.674 352.254C380.154 367.038 390.869 384.578 397.842 404.23C398.99 404.626 400.186 404.914 401.382 404.914C404.115 404.914 406.849 403.874 408.945 401.784L436.324 374.413C438.328 372.409 439.43 369.692 439.43 366.858C439.43 364.024 438.328 361.307 436.324 359.295L420.748 343.743C423.73 338.122 426.245 332.188 428.141 325.993H450.098C452.924 325.993 455.673 324.875 457.661 322.855C459.665 320.859 460.799 318.135 460.799 315.3L460.782 276.588Z" fill="white"/>
<path d="M376.038 413.906C359.436 365.058 315.567 331.461 264.925 326.888C247.967 344.846 226.971 356.239 203.194 356.239C179.435 356.239 158.423 344.847 141.481 326.888C90.809 331.461 46.938 365.058 30.336 413.914L21.159 440.927C18.534 448.7 19.791 457.265 24.575 463.934C29.358 470.605 37.061 474.565 45.26 474.565H361.113C369.328 474.565 377.031 470.605 381.815 463.934C386.582 457.265 387.856 448.7 385.215 440.927L376.038 413.906Z" fill="white"/>
<path d="M120.842 206.782C120.842 267.371 157.725 332.385 203.194 332.385C248.681 332.385 285.562 267.371 285.562 206.782C285.563 81.1881 120.842 80.9391 120.842 206.782Z" fill="white"/>
</g>
<defs>
<clipPath id="clip0_201_26">
<rect width="474.565" height="474.565" fill="white"/>
</clipPath>
</defs>
</svg>
