<svg width="30" height="31" viewBox="0 0 30 31" fill="none" xmlns="http://www.w3.org/2000/svg">
<path d="M20.0344 3.43258C15.4576 -1.14419 8.0086 -1.14419 3.43183 3.43258C-1.14394 8.01033 -1.14394 15.4584 3.43183 20.0361C7.50757 24.1109 13.8553 24.5474 18.4291 21.3656C18.5253 21.821 18.7456 22.2556 19.0998 22.6098L25.765 29.275C26.7363 30.2443 28.3059 30.2443 29.2723 29.275C30.2426 28.3047 30.2426 26.7351 29.2723 25.7678L22.607 19.1005C22.2548 18.7493 21.8193 18.5281 21.3639 18.4318C24.5477 13.857 24.1111 7.51029 20.0344 3.43258ZM17.9301 17.9318C14.5131 21.3487 8.95213 21.3487 5.53617 17.9318C2.12121 14.5148 2.12121 8.95486 5.53617 5.53791C8.95213 2.12195 14.5131 2.12195 17.9301 5.53791C21.347 8.95486 21.347 14.5148 17.9301 17.9318Z" fill="white"/>
</svg>
